<svg width="51" height="60" viewBox="0 0 51 60" fill="none" xmlns="http://www.w3.org/2000/svg">
<path d="M20.7246 58.101C22.4684 53.9296 24.3754 49.138 22.5186 44.6991C20.8124 40.625 17.2243 37.682 12.9588 36.3199C9.50873 35.2254 5.19301 35.3591 2.50823 38.0468C1.02784 39.5305 0.312739 41.6223 0.877295 43.6532C1.36658 45.4166 2.63369 46.9855 4.03881 48.1651C7.36342 50.9866 11.767 52.2514 16.0576 52.9081C19.7711 53.4797 23.4595 53.3702 26.9347 51.8744C30.9995 50.1109 33.7721 46.4868 35.2776 42.5222C36.62 38.9589 36.8207 34.97 36.0052 31.2729C35.127 27.2718 32.8688 23.8909 29.6571 21.2762C27.9634 19.8898 26.1318 18.6858 24.1496 17.7251C22.2928 16.8251 20.2729 16.0346 18.1904 15.7671C15.0163 15.3536 11.4533 16.5211 9.20763 18.7345C6.0963 21.7991 6.48522 26.311 8.46744 29.8622C10.4622 33.4376 13.8997 36.2956 17.6258 38.0711C21.3519 39.8467 25.7429 40.9047 29.8955 40.9291C32.3293 40.9412 34.8636 40.6615 37.2222 40.0534C39.4679 39.4575 41.4626 38.2657 43.2316 36.8307C48.3251 32.7201 50.6461 26.4205 50.6837 20.0965C50.7339 13.9064 48.6011 7.40001 43.9592 3.00973C42.8175 1.92737 41.5253 0.978776 40.1328 0.212605C38.3764 -0.76031 36.7956 1.86656 38.552 2.83947C39.9069 3.58132 40.6597 4.12859 41.7386 5.16231C42.2404 5.63661 42.7046 6.14738 43.1563 6.67032C43.2065 6.71897 43.2441 6.77977 43.2943 6.84058C43.1312 6.646 43.2817 6.82842 43.3194 6.86491C43.4197 6.99868 43.5201 7.13246 43.6205 7.26623C43.8338 7.55811 44.0345 7.84998 44.2227 8.14186C44.599 8.72561 44.9503 9.32151 45.264 9.94175C45.402 10.2215 45.54 10.5012 45.6654 10.7809C45.7031 10.866 45.7407 10.9511 45.7783 11.0484C45.7658 11.0241 45.6905 10.8539 45.7658 11.012C45.8536 11.2065 45.9289 11.4133 46.0042 11.62C46.506 12.9091 46.8824 14.2347 47.1458 15.5847C47.2085 15.913 47.2713 16.2535 47.3215 16.5941C47.3215 16.6305 47.3716 16.9346 47.3465 16.7521C47.3215 16.5819 47.3591 16.8251 47.3591 16.8373C47.3842 17.0319 47.4093 17.2264 47.4218 17.421C47.4971 18.1264 47.5347 18.8196 47.5473 19.525C47.5598 20.2303 47.5347 20.9235 47.4971 21.6167C47.472 21.9572 47.4469 22.2856 47.4093 22.6261C47.3967 22.7964 47.3716 22.9545 47.3465 23.1247C47.3215 23.3072 47.3465 23.1004 47.3591 23.0761C47.3465 23.1977 47.3215 23.3072 47.3089 23.4288C47.0956 24.7665 46.7569 26.1043 46.2927 27.3812C46.1923 27.661 46.0794 27.9407 45.9665 28.2204C45.9289 28.3055 45.8912 28.3906 45.8662 28.4758C45.8912 28.415 45.9791 28.2204 45.8536 28.4879C45.7783 28.6582 45.7031 28.8163 45.6152 28.9865C45.3392 29.5581 45.0381 30.1054 44.6994 30.6527C44.5363 30.9202 44.3607 31.1756 44.185 31.431C44.0972 31.5526 44.0094 31.6864 43.909 31.808C43.8588 31.881 43.7961 31.9539 43.7459 32.0147C43.6079 32.1972 43.8965 31.8445 43.7459 32.0147C43.3068 32.5498 42.8426 33.0485 42.3408 33.5228C40.9984 34.7997 39.4929 35.9307 37.7616 36.6604C35.8923 37.4631 33.6717 37.7185 31.6393 37.8401C29.5944 37.9617 27.5996 37.8157 25.6049 37.4144C22.0293 36.7091 18.6922 35.5537 15.7816 33.389C13.0717 31.3702 10.5375 28.5731 10.0733 25.2043C9.97292 24.4503 9.99801 23.6112 10.2238 22.8572C10.2615 22.7113 10.3117 22.5775 10.3618 22.4315C10.4622 22.1518 10.3995 22.3221 10.3744 22.3829C10.412 22.2978 10.4622 22.2126 10.4998 22.1275C10.6629 21.8356 10.8386 21.5438 11.0518 21.2762C10.8888 21.4829 11.2275 21.0816 11.2777 21.033C11.378 20.9235 11.4784 20.8262 11.5913 20.7289C11.7168 20.6195 11.8422 20.51 11.9802 20.4006C12.0053 20.3763 12.2562 20.1938 12.1057 20.3033C11.9928 20.3884 12.2186 20.2303 12.2437 20.206C12.5322 20.0236 12.8208 19.8412 13.1219 19.6831C13.2724 19.6101 13.423 19.525 13.5861 19.452C13.6739 19.4155 13.7617 19.3669 13.8495 19.3304C13.699 19.3912 13.7743 19.3547 13.8872 19.3182C14.5521 19.0871 15.2045 18.9047 15.8945 18.7831C16.2834 18.7101 15.8067 18.7709 16.0952 18.7588C16.2458 18.7466 16.4089 18.7345 16.5594 18.7223C16.8731 18.7101 17.1992 18.7101 17.5129 18.7223C17.5882 18.7223 18.0022 18.7709 17.7763 18.7466C17.5631 18.7223 18.0147 18.7953 18.09 18.8074C18.5542 18.9047 19.0184 19.0142 19.4826 19.148C20.3482 19.4033 21.1888 19.7074 22.0042 20.0844C25.2787 21.5681 28.666 23.8787 30.6608 26.7245C32.6681 29.5581 33.4459 32.9512 33.333 36.3564C33.2703 38.059 32.9817 39.64 32.3921 41.3061C32.2917 41.5858 32.1913 41.8655 32.0784 42.1331C32.0283 42.2547 31.9906 42.4128 31.9153 42.5101C31.9781 42.4128 32.0784 42.1574 31.9655 42.3884C31.9279 42.4736 31.8903 42.5587 31.8526 42.6438C31.5139 43.3614 31.125 44.0667 30.6859 44.7356C30.5604 44.918 30.435 45.1004 30.3095 45.2829C30.2468 45.3802 30.1715 45.4653 30.1088 45.5626C30.0711 45.6112 30.0209 45.672 29.9833 45.7207C29.8578 45.8788 30.1715 45.4896 30.0335 45.6477C29.7073 46.0369 29.3686 46.426 29.0047 46.7909C28.6158 47.18 28.2018 47.5327 27.7627 47.8732C27.6247 47.9827 27.838 47.8246 27.838 47.8124C27.7753 47.8611 27.7125 47.9097 27.6498 47.9462C27.5369 48.0313 27.424 48.1043 27.2985 48.1894C27.0351 48.3597 26.7716 48.5178 26.5081 48.6759C26.2447 48.8218 25.9812 48.9556 25.7052 49.0894C25.5672 49.1502 25.4292 49.211 25.2787 49.284C25.1156 49.3569 25.3289 49.2718 25.3414 49.2597C25.241 49.2961 25.1281 49.3448 25.0278 49.3813C24.3754 49.6245 23.7105 49.8069 23.033 49.9529C22.6817 50.0258 22.3304 50.0866 21.9666 50.1353C22.205 50.0988 21.8161 50.1474 21.7533 50.1596C21.5401 50.1839 21.3142 50.1961 21.101 50.2082C20.2102 50.2569 19.3195 50.2447 18.4287 50.1718C16.6472 50.0258 14.7779 49.661 12.9839 49.1988C11.1397 48.7124 9.35818 48.0557 7.72724 47.0706C6.42249 46.2801 5.20556 45.2221 4.47791 44.0789C4.07645 43.4343 3.81299 42.8141 3.81299 42.1574C3.82553 41.5493 4.10154 40.9777 4.45282 40.5156C4.51555 40.4305 4.86682 40.0778 5.06756 39.9075C5.29338 39.7129 5.16792 39.8224 5.10519 39.871C5.16792 39.8224 5.23065 39.7859 5.29338 39.7373C5.48156 39.6156 5.6823 39.494 5.88303 39.3846C6.02103 39.3116 6.15903 39.2508 6.29703 39.19C6.0963 39.2751 6.51031 39.117 6.57304 39.0927C6.94941 38.9711 7.32578 38.8738 7.7147 38.8008C7.81507 38.7765 7.92798 38.7643 8.02834 38.7522C7.99071 38.7522 7.81506 38.7765 8.00325 38.7522C8.19143 38.74 8.36707 38.7157 8.55526 38.7157C8.94417 38.7035 9.34564 38.7035 9.73455 38.74C9.80983 38.7522 10.274 38.813 10.0106 38.7643C10.1987 38.7887 10.3869 38.8251 10.5751 38.8738C11.0268 38.9711 11.4784 39.0805 11.93 39.2265C13.6112 39.7373 15.2923 40.5521 16.597 41.7317C17.8767 42.8749 19.0435 44.3343 19.6331 45.8788C20.3106 47.6665 20.2478 49.4178 19.8087 51.3028C19.332 53.3702 18.5165 55.3525 17.7011 57.3105C17.3874 58.0767 18.0523 58.9766 18.7925 59.1834C19.6958 59.4023 20.4109 58.855 20.7246 58.101Z" fill="#6F4297"/>
</svg>
