<svg width="14" height="17" viewBox="0 0 14 17" fill="none" xmlns="http://www.w3.org/2000/svg">
<path d="M13.2288 11.6675C12.326 10.5625 11.6886 10 11.6886 6.95371C11.6886 4.16406 10.2641 3.1702 9.0916 2.6875C8.93586 2.62352 8.78926 2.47656 8.7418 2.3166C8.53614 1.61664 7.95957 1 7.19317 1C6.42676 1 5.84985 1.61699 5.64629 2.3173C5.59883 2.47902 5.45223 2.62352 5.29649 2.6875C4.12262 3.1709 2.69949 4.16125 2.69949 6.95371C2.69774 10 2.06035 10.5625 1.15754 11.6675C0.783479 12.1252 1.11114 12.8125 1.76539 12.8125H12.6245C13.2752 12.8125 13.6007 12.1231 13.2288 11.6675Z" stroke="white" stroke-linecap="round" stroke-linejoin="round"/>
<path d="M9.44336 12.8125V13.375C9.44336 13.9717 9.20631 14.544 8.78435 14.966C8.36239 15.3879 7.7901 15.625 7.19336 15.625C6.59662 15.625 6.02433 15.3879 5.60237 14.966C5.18041 14.544 4.94336 13.9717 4.94336 13.375V12.8125" stroke="white" stroke-linecap="round" stroke-linejoin="round"/>
</svg>
