<svg width="30" height="31" viewBox="0 0 30 31" fill="none" xmlns="http://www.w3.org/2000/svg">
<path d="M15.0017 0.263185C6.71322 0.259694 0 7.24858 0 15.8747C0 22.6961 4.19953 28.4945 10.048 30.624C10.8357 30.83 10.715 30.247 10.715 29.849V27.1435C6.16691 27.6986 5.98257 24.5637 5.67758 24.0401C5.06089 22.9439 3.60295 22.6646 4.03866 22.141C5.07429 21.5859 6.13004 22.2806 7.35337 24.1623C8.23819 25.5272 9.96425 25.2968 10.839 25.0699C11.0301 24.2495 11.4389 23.5164 12.002 22.9474C7.28969 22.0677 5.32566 19.0724 5.32566 15.5117C5.32566 13.7836 5.87197 12.1953 6.94448 10.9141C6.26075 8.80206 7.00816 6.99374 7.1087 6.72494C9.05597 6.54341 11.0803 8.17718 11.2379 8.30634C12.3439 7.99565 13.6074 7.83157 15.0218 7.83157C16.4429 7.83157 17.7098 8.00263 18.8258 8.31681C19.2046 8.01659 21.0814 6.61323 22.8913 6.78429C22.9885 7.05309 23.7191 8.81951 23.0756 10.9036C24.1615 12.1883 24.7146 13.7906 24.7146 15.5221C24.7146 19.0899 22.7371 22.0886 18.0114 22.9544C18.4162 23.369 18.7376 23.8635 18.9568 24.4089C19.1761 24.9544 19.2888 25.5398 19.2883 26.1311V30.0585C19.3152 30.3727 19.2883 30.6833 19.7911 30.6833C25.7267 28.5993 30 22.7589 30 15.8782C30 7.24858 23.2834 0.263185 15.0017 0.263185Z" fill="#2A2A2A"/>
</svg>
