<svg width="20" height="18" viewBox="0 0 20 18" fill="none" xmlns="http://www.w3.org/2000/svg">
<path d="M17.8535 2.07554L17.8531 2.07516C17.3393 1.58329 16.733 1.19184 16.0668 0.922615L16.0662 0.922357C15.3752 0.641985 14.6336 0.498331 13.8847 0.500015L13.8835 0.500017C12.8313 0.500016 11.8063 0.781443 10.9169 1.31141L10.9169 1.31142C10.7041 1.43819 10.5024 1.57715 10.3116 1.7283L10.0011 1.97428L9.69066 1.7283C9.49987 1.57715 9.29819 1.43819 9.08542 1.31142L9.08541 1.31141C8.19597 0.781443 7.17099 0.500016 6.11876 0.500016C5.36026 0.500016 4.62779 0.641725 3.93609 0.922359L3.93556 0.922575C3.26694 1.19295 2.66555 1.58124 2.14908 2.07531L2.14839 2.07596C1.63546 2.56478 1.22637 3.14651 0.943724 3.78787L17.8535 2.07554ZM17.8535 2.07554C18.3658 2.56504 18.775 3.14677 19.0586 3.78787L17.8535 2.07554ZM0.935544 8.04396C1.18105 8.66991 1.53667 9.32824 1.998 10.0009L0.935544 8.04396ZM0.935544 8.04396C0.642739 7.29615 0.5 6.57327 0.5 5.89044C0.5 5.16212 0.649727 4.45516 0.943707 3.78791L0.935544 8.04396ZM5.02056 13.3406L5.02061 13.3406C6.07736 14.2938 7.13098 15.1013 7.93253 15.6777C8.33292 15.9656 8.66941 16.1951 8.91063 16.3555C9.03124 16.4357 9.12788 16.4985 9.19663 16.5427C9.23102 16.5648 9.2583 16.5821 9.27798 16.5944L9.3013 16.609C9.30619 16.6121 9.30869 16.6136 9.30938 16.614L9.30955 16.6141L9.31744 16.6189L9.3174 16.6189L9.8651 16.962C9.86514 16.9621 9.86518 16.9621 9.86522 16.9621C9.94637 17.0126 10.0536 17.0126 10.1348 16.9621C10.1348 16.9621 10.1348 16.9621 10.1349 16.962L10.6826 16.6189L10.6827 16.6189C10.7632 16.5685 12.8603 15.25 14.9794 13.3406C16.2552 12.1902 17.2705 11.066 18.002 10.0009C18.464 9.32727 18.8213 8.66938 19.064 8.04511L19.0644 8.04396C19.3572 7.29615 19.5 6.57327 19.5 5.89044V5.88899C19.5021 5.16165 19.3526 4.45517 19.0586 3.7879L5.02056 13.3406ZM5.02056 13.3406C3.74488 12.1903 2.72963 11.0662 1.99816 10.0011L5.02056 13.3406ZM16.2542 0.459039C15.5029 0.154214 14.6971 -0.001813 13.8835 1.58937e-05C12.7422 1.58937e-05 11.6286 0.305278 10.6609 0.881883C10.4294 1.01982 10.2095 1.17132 10.0011 1.33638C9.79279 1.17132 9.57285 1.01982 9.34135 0.881883L16.2542 0.459039Z" stroke="#2A2A2A" stroke-opacity="0.7"/>
</svg>
