<svg width="30" height="31" viewBox="0 0 30 31" fill="none" xmlns="http://www.w3.org/2000/svg">
<path d="M15 0C6.71562 0 0 6.79356 0 15.1741C0 23.5546 6.71562 30.3481 15 30.3481C23.2844 30.3481 30 23.5546 30 15.1741C30 6.79356 23.2844 0 15 0ZM11.3281 21.4634H8.29062V11.575H11.3281V21.4634ZM9.79062 10.361C8.83125 10.361 8.21094 9.67347 8.21094 8.82309C8.21094 7.95532 8.85 7.2883 9.82969 7.2883C10.8094 7.2883 11.4094 7.95532 11.4281 8.82309C11.4281 9.67347 10.8094 10.361 9.79062 10.361ZM22.4219 21.4634H19.3844V15.9834C19.3844 14.7078 18.9437 13.8416 17.8453 13.8416C17.0063 13.8416 16.5078 14.428 16.2875 14.9923C16.2062 15.193 16.1859 15.4776 16.1859 15.7605V21.4618H13.1469V14.7283C13.1469 13.4939 13.1078 12.4617 13.0672 11.5734H15.7062L15.8453 12.947H15.9062C16.3062 12.3021 17.2859 11.3505 18.925 11.3505C20.9234 11.3505 22.4219 12.7051 22.4219 15.6166V21.4634Z" fill="#2A2A2A"/>
</svg>
