<svg width="15" height="15" viewBox="0 0 15 15" fill="none" xmlns="http://www.w3.org/2000/svg">
<path d="M5.98 11.96C2.668 11.96 0 9.292 0 5.98C0 2.668 2.668 0 5.98 0C9.292 0 11.96 2.668 11.96 5.98C11.96 9.292 9.292 11.96 5.98 11.96ZM5.98 0.92C3.174 0.92 0.92 3.174 0.92 5.98C0.92 8.786 3.174 11.04 5.98 11.04C8.786 11.04 11.04 8.786 11.04 5.98C11.04 3.174 8.786 0.92 5.98 0.92Z" fill="white"/>
<path d="M10.4336 9.78284L14.5644 13.9136L13.914 14.5641L9.7832 10.4333L10.4336 9.78284Z" fill="white"/>
</svg>
