<svg width="30" height="30" viewBox="0 0 30 30" fill="none" xmlns="http://www.w3.org/2000/svg">
<path d="M30 15C30 6.72927 23.2707 0 15 0C6.72927 0 0 6.72927 0 15C0 19.3652 1.87569 23.3002 4.8619 26.0436C4.86555 26.0469 4.8655 26.0527 4.86179 26.056C4.85797 26.0593 4.85804 26.0653 4.86194 26.0686L5.34109 26.4725C5.37273 26.4993 5.40709 26.5211 5.43873 26.5473C5.69727 26.7616 5.96509 26.9651 6.23782 27.162C6.32618 27.2258 6.41455 27.2896 6.50455 27.3518C6.79582 27.5525 7.09473 27.7429 7.40018 27.9235C7.46673 27.9627 7.53382 28.0009 7.60091 28.0391C7.93527 28.2295 8.27673 28.4089 8.62636 28.5736C8.652 28.5856 8.67818 28.5965 8.70382 28.6085C9.84327 29.1382 11.0596 29.5271 12.3316 29.7567C12.3649 29.7627 12.3982 29.7687 12.432 29.7747C12.8269 29.8429 13.2262 29.8975 13.6304 29.934C13.6795 29.9384 13.7285 29.9411 13.7782 29.9455C14.1807 29.9787 14.5876 30 15 30C15.4085 30 15.8116 29.9787 16.212 29.9465C16.2627 29.9422 16.3135 29.9395 16.3642 29.9351C16.7651 29.8985 17.1611 29.8456 17.5522 29.7785C17.586 29.7725 17.6204 29.7665 17.6542 29.76C18.9071 29.5353 20.106 29.1551 21.2307 28.6391C21.2722 28.62 21.3142 28.602 21.3556 28.5824C21.6922 28.4242 22.0211 28.2535 22.3435 28.0718C22.4236 28.0265 22.5033 27.9807 22.5829 27.9338C22.8764 27.7609 23.1649 27.5804 23.4453 27.3884C23.5462 27.3196 23.6449 27.2471 23.7447 27.1751C23.9842 27.0027 24.2193 26.8249 24.4478 26.6389C24.4985 26.598 24.5531 26.5625 24.6027 26.5205L25.0942 26.1102C25.0982 26.1068 25.0982 26.1008 25.0943 26.0974C25.0905 26.0942 25.0904 26.0883 25.0941 26.0849C28.1064 23.3404 30 19.3875 30 15ZM1.09091 15C1.09091 7.33036 7.33036 1.09091 15 1.09091C22.6696 1.09091 28.9091 7.33036 28.9091 15C28.9091 18.9288 27.2702 22.4805 24.6418 25.0118C24.4012 25.2435 24.0356 25.2548 23.7371 25.1051L19.1187 22.7962C18.7042 22.5889 18.4467 22.1722 18.4467 21.7091V20.6547C18.4467 20.2934 18.5739 19.9451 18.7833 19.6505C19.1446 19.1402 19.4628 18.5951 19.7351 18.0205C20.0798 17.2933 20.7262 16.7139 21.1094 16.0062C21.2625 15.7234 21.3475 15.4013 21.3475 15.0622V13.1285C21.3475 13.0294 21.3398 12.931 21.3249 12.8339C21.216 12.1239 20.8636 11.4413 20.8636 10.723V9.29073C20.892 9.00709 20.9924 7.41 19.8365 6.09218C18.8313 4.94455 17.2042 4.36364 15 4.36364C12.7958 4.36364 11.1687 4.94455 10.1635 6.09164C9.00764 7.40945 9.108 9.00764 9.13636 9.29018V10.7239C9.13636 11.4413 8.7849 12.1229 8.67533 12.8319C8.66026 12.9295 8.65255 13.0284 8.65255 13.128V15.0616C8.65255 15.3254 8.70453 15.5814 8.80193 15.8176C9.0459 16.4092 9.45489 16.9403 9.67927 17.5396C9.9334 18.2184 10.2389 18.8008 10.5091 19.2498C10.8461 19.8097 11.0705 20.4389 11.0705 21.0925V21.6638C11.0705 22.1089 10.8278 22.518 10.4367 22.7318L6.12382 25.0844C5.87454 25.2199 5.56237 25.21 5.358 25.0131C2.72924 22.4812 1.09091 18.9286 1.09091 15Z" fill="#ABABAB"/>
</svg>
