<svg width="30" height="30" viewBox="0 0 30 30" fill="none" xmlns="http://www.w3.org/2000/svg">
<path d="M15 0C13.0302 0 11.0796 0.387987 9.25975 1.14181C7.43986 1.89563 5.78628 3.00052 4.3934 4.3934C1.58035 7.20644 0 11.0218 0 15C0 18.9782 1.58035 22.7936 4.3934 25.6066C5.78628 26.9995 7.43986 28.1044 9.25975 28.8582C11.0796 29.612 13.0302 30 15 30C18.9782 30 22.7936 28.4196 25.6066 25.6066C28.4196 22.7936 30 18.9782 30 15C30 13.0302 29.612 11.0796 28.8582 9.25975C28.1044 7.43986 26.9995 5.78628 25.6066 4.3934C24.2137 3.00052 22.5601 1.89563 20.7403 1.14181C18.9204 0.387987 16.9698 0 15 0ZM5.25 9.75H7.5C8.04 9.75 8.25 9.99 8.46 10.605C9.54 13.755 11.355 16.5 12.105 16.5C12.39 16.5 12.525 16.38 12.525 15.675V12.42C12.435 10.92 11.64 10.785 11.64 10.26C11.64 10.005 11.85 9.75 12.21 9.75H15.675C16.155 9.75 16.305 10.005 16.305 10.56V14.94C16.305 15.405 16.5 15.57 16.65 15.57C16.935 15.57 17.175 15.405 17.685 14.895C19.275 13.11 20.4 10.38 20.4 10.38C20.55 10.05 20.805 9.75 21.36 9.75H23.565C24.24 9.75 24.39 10.095 24.24 10.56C23.955 11.85 21.27 15.645 21.27 15.645C21 16.02 20.94 16.2 21.27 16.635C21.495 16.95 22.275 17.61 22.785 18.225C23.745 19.29 24.45 20.19 24.66 20.805C24.84 21.435 24.525 21.75 23.895 21.75H21.675C20.835 21.75 20.595 21.075 19.095 19.575C17.775 18.315 17.25 18.15 16.89 18.15C16.44 18.15 16.305 18.27 16.305 18.915V20.895C16.305 21.435 16.14 21.75 14.73 21.75C12.39 21.75 9.81 20.325 7.995 17.7C5.25 13.86 4.5 10.965 4.5 10.38C4.5 10.05 4.62 9.75 5.25 9.75Z" fill="#2A2A2A"/>
</svg>
