<svg width="30" height="30" viewBox="0 0 30 30" fill="none" xmlns="http://www.w3.org/2000/svg">
<path d="M15.0017 1.28917e-06C6.71322 -0.00344145 0 6.88892 0 15.3959C0 22.123 4.19953 27.8414 10.048 29.9415C10.8357 30.1446 10.715 29.5697 10.715 29.1772V26.5091C6.16691 27.0565 5.98257 23.9649 5.67758 23.4485C5.06089 22.3675 3.60295 22.092 4.03866 21.5756C5.07429 21.0282 6.13004 21.7133 7.35337 23.569C8.23819 24.9151 9.96425 24.6879 10.839 24.4641C11.0301 23.655 11.4389 22.9321 12.002 22.3709C7.28969 21.5033 5.32566 18.5495 5.32566 15.0379C5.32566 13.3337 5.87197 11.7673 6.94448 10.5038C6.26075 8.42093 7.00816 6.6376 7.1087 6.3725C9.05597 6.19348 11.0803 7.80468 11.2379 7.93206C12.3439 7.62566 13.6074 7.46385 15.0218 7.46385C16.4429 7.46385 17.7098 7.63255 18.8258 7.94239C19.2046 7.64632 21.0814 6.26234 22.8913 6.43103C22.9885 6.69612 23.7191 8.43815 23.0756 10.4935C24.1615 11.7604 24.7146 13.3406 24.7146 15.0482C24.7146 18.5667 22.7371 21.524 18.0114 22.3778C18.4162 22.7867 18.7376 23.2743 18.9568 23.8122C19.1761 24.3501 19.2888 24.9275 19.2883 25.5107V29.3837C19.3152 29.6936 19.2883 30 19.7911 30C25.7267 27.9447 30 22.185 30 15.3994C30 6.88891 23.2834 1.28917e-06 15.0017 1.28917e-06Z" fill="white"/>
</svg>
