<svg width="30" height="30" viewBox="0 0 30 30" fill="none" xmlns="http://www.w3.org/2000/svg">
<path d="M19.6875 15C19.6875 16.2432 19.1936 17.4355 18.3146 18.3146C17.4355 19.1936 16.2432 19.6875 15 19.6875C13.7568 19.6875 12.5645 19.1936 11.6854 18.3146C10.8064 17.4355 10.3125 16.2432 10.3125 15C10.3125 14.7328 10.3406 14.4719 10.3891 14.2187H8.75V20.4641C8.75 20.8984 9.10156 21.25 9.53594 21.25H20.4656C20.6738 21.2496 20.8733 21.1666 21.0204 21.0193C21.1674 20.8719 21.25 20.6722 21.25 20.4641V14.2187H19.6109C19.6594 14.4719 19.6875 14.7328 19.6875 15ZM15 18.125C15.4105 18.1249 15.8169 18.0439 16.1961 17.8868C16.5753 17.7296 16.9198 17.4993 17.21 17.2089C17.5002 16.9186 17.7304 16.574 17.8874 16.1947C18.0444 15.8154 18.1251 15.4089 18.125 14.9984C18.1249 14.588 18.0439 14.1815 17.8868 13.8023C17.7296 13.4231 17.4993 13.0786 17.2089 12.7884C16.9186 12.4982 16.574 12.2681 16.1947 12.1111C15.8154 11.9541 15.4089 11.8733 14.9984 11.8734C14.1694 11.8736 13.3745 12.2032 12.7884 12.7895C12.2024 13.3759 11.8732 14.171 11.8734 15C11.8736 15.829 12.2032 16.624 12.7895 17.21C13.3759 17.7961 14.171 18.1252 15 18.125ZM18.75 11.7187H20.6234C20.7479 11.7188 20.8673 11.6694 20.9554 11.5816C21.0436 11.4937 21.0933 11.3745 21.0937 11.25V9.37656C21.0937 9.25183 21.0442 9.1322 20.956 9.044C20.8678 8.9558 20.7482 8.90625 20.6234 8.90625H18.75C18.6253 8.90625 18.5056 8.9558 18.4174 9.044C18.3292 9.1322 18.2797 9.25183 18.2797 9.37656V11.25C18.2812 11.5078 18.4922 11.7187 18.75 11.7187ZM15 0C11.0218 0 7.20644 1.58035 4.3934 4.3934C1.58035 7.20644 0 11.0218 0 15C0 18.9782 1.58035 22.7936 4.3934 25.6066C7.20644 28.4196 11.0218 30 15 30C16.9698 30 18.9204 29.612 20.7403 28.8582C22.5601 28.1044 24.2137 26.9995 25.6066 25.6066C26.9995 24.2137 28.1044 22.5601 28.8582 20.7403C29.612 18.9204 30 16.9698 30 15C30 13.0302 29.612 11.0796 28.8582 9.25975C28.1044 7.43986 26.9995 5.78628 25.6066 4.3934C24.2137 3.00052 22.5601 1.89563 20.7403 1.14181C18.9204 0.387986 16.9698 0 15 0ZM22.8125 21.0766C22.8125 22.0312 22.0312 22.8125 21.0766 22.8125H8.92344C7.96875 22.8125 7.1875 22.0312 7.1875 21.0766V8.92344C7.1875 7.96875 7.96875 7.1875 8.92344 7.1875H21.0766C22.0312 7.1875 22.8125 7.96875 22.8125 8.92344V21.0766Z" fill="white"/>
</svg>
